<svg width="330" height="88" viewBox="0 0 330 88" fill="none" xmlns="http://www.w3.org/2000/svg">
<path d="M132.627 69.4143C132.656 68.8462 132.542 68.28 132.296 67.7672C132.05 67.2544 131.679 66.8115 131.218 66.4788C129.643 65.5152 127.936 64.7881 126.151 64.3206C124.159 63.7393 122.219 62.9906 120.353 62.0826C116.474 60.0739 114.535 57.3681 114.535 53.9653C114.514 52.258 115.063 50.5926 116.095 49.2321C117.258 47.7545 118.81 46.6295 120.576 45.9831C122.666 45.1757 124.892 44.7771 127.133 44.8089C129.372 44.769 131.594 45.2019 133.654 46.0794C135.445 46.831 136.986 48.0743 138.1 49.6654C139.157 51.2142 139.71 53.0518 139.684 54.927H132.65C132.686 54.2701 132.571 53.6137 132.315 53.0077C132.059 52.4018 131.668 51.8623 131.172 51.4302C129.981 50.5321 128.508 50.0894 127.02 50.182C125.606 50.0972 124.202 50.463 123.009 51.2271C122.56 51.5306 122.193 51.9416 121.943 52.4227C121.693 52.9038 121.568 53.4397 121.577 53.9817C121.596 54.5361 121.76 55.0758 122.055 55.5459C122.349 56.0159 122.763 56.3996 123.254 56.6577C124.799 57.5565 126.46 58.2374 128.192 58.6809C132.195 59.8347 135.112 61.2665 136.942 62.9761C137.829 63.7822 138.534 64.7693 139.007 65.8709C139.481 66.9724 139.712 68.1627 139.686 69.3614C139.732 70.665 139.448 71.9591 138.862 73.1243C138.276 74.2895 137.405 75.2883 136.331 76.0285C133.653 77.7695 130.492 78.6191 127.302 78.4556C124.838 78.4874 122.393 78.0155 120.118 77.0689C118.151 76.2929 116.443 74.9799 115.186 73.2797C114.043 71.648 113.447 69.6956 113.484 67.7035H120.545C120.545 71.3161 122.797 73.1224 127.302 73.1224C128.676 73.2013 130.043 72.8601 131.219 72.1443C131.668 71.8479 132.033 71.4412 132.279 70.9632C132.526 70.4852 132.645 69.9518 132.627 69.4143ZM152.118 47.6915V53.6729H156.463V58.4402H152.118V70.5826C152.055 71.2715 152.246 71.9599 152.657 72.5165C152.946 72.7459 153.276 72.9159 153.631 73.0167C153.985 73.1175 154.356 73.147 154.722 73.1036C155.39 73.1105 156.058 73.0578 156.718 72.9463V77.8685C155.383 78.2601 153.999 78.4578 152.608 78.4556C147.854 78.4556 145.43 76.1546 145.336 71.5525V58.4402H141.634V53.6729H145.341V47.6915H152.118ZM174.945 78.0024C174.6 77.3173 174.371 76.5803 174.265 75.8207C173.447 76.6914 172.453 77.377 171.348 77.8315C170.244 78.2859 169.055 78.4987 167.861 78.4556C165.619 78.5363 163.424 77.7998 161.685 76.3832C160.904 75.7588 160.278 74.9638 159.853 74.0595C159.428 73.1551 159.216 72.1653 159.233 71.1662C159.18 70.0033 159.427 68.8464 159.951 67.8068C160.475 66.7672 161.257 65.88 162.224 65.2306C164.217 63.8513 167.099 63.1542 170.868 63.1393H173.988V61.7456C174.038 60.7637 173.715 59.7992 173.085 59.0449C172.71 58.6818 172.262 58.4035 171.77 58.2289C171.278 58.0542 170.755 57.9873 170.235 58.0327C169.276 57.9767 168.326 58.2547 167.549 58.8195C167.229 59.0778 166.974 59.4077 166.805 59.7826C166.636 60.1575 166.557 60.5668 166.575 60.9776H159.791C159.794 59.558 160.273 58.1806 161.152 57.0652C162.156 55.7955 163.485 54.8216 164.998 54.2471C166.774 53.543 168.671 53.1955 170.582 53.2244C173.253 53.0805 175.889 53.8806 178.03 55.4847C178.95 56.2574 179.678 57.2335 180.156 58.336C180.635 59.4385 180.85 60.6371 180.785 61.8371V72.3827C180.695 74.1848 181.041 75.9821 181.794 77.6219V78.0047L174.945 78.0024ZM169.338 73.4829C170.298 73.4921 171.247 73.2723 172.106 72.8418C172.891 72.4705 173.546 71.8709 173.984 71.1216V66.9391H171.449C168.056 66.9391 166.25 68.0632 166.03 70.3114L166.007 70.6942C165.998 71.0721 166.074 71.4473 166.228 71.7925C166.382 72.1377 166.611 72.4444 166.898 72.6903C167.584 73.2488 168.454 73.5314 169.338 73.4829ZM196.55 73.2128C197.654 73.2629 198.739 72.9112 199.603 72.223C199.988 71.9013 200.296 71.4988 200.507 71.0442C200.718 70.5895 200.826 70.0939 200.823 69.5928H207.18C207.174 71.2101 206.683 72.7884 205.771 74.124C204.825 75.5155 203.514 76.62 201.982 77.3166C200.318 78.0869 198.502 78.4749 196.669 78.4521C195.085 78.5349 193.501 78.2821 192.022 77.7105C190.542 77.1389 189.2 76.2612 188.083 75.135C185.987 72.9236 184.94 69.8706 184.94 65.9762V65.5394C184.774 62.2568 185.893 59.0386 188.06 56.5673C189.166 55.4311 190.502 54.5444 191.979 53.9667C193.455 53.3889 195.038 53.1334 196.622 53.2173C199.404 53.0814 202.133 54.0101 204.254 55.8147C205.21 56.6894 205.965 57.76 206.469 58.9534C206.973 60.1467 207.214 61.4347 207.174 62.7295H200.82C200.832 61.5882 200.394 60.488 199.6 59.6684C199.192 59.2706 198.706 58.9606 198.174 58.7577C197.641 58.5547 197.073 58.463 196.503 58.4883C195.817 58.4452 195.131 58.5734 194.506 58.8614C193.881 59.1493 193.338 59.5881 192.925 60.1381C191.988 61.7618 191.567 63.632 191.717 65.5007V66.1746C191.563 68.0545 191.98 69.9372 192.914 71.576C193.337 72.1286 193.891 72.5674 194.526 72.8531C195.16 73.1388 195.856 73.2624 196.55 73.2128ZM220.269 68.2436L217.829 70.5826V78.0024H211.047V43.4644H217.827V62.6039L219.141 60.9847L225.639 53.6764H233.781L224.607 63.8133L234.577 78.0012H226.788L220.269 68.2436Z" fill="#222222"/>
<path d="M29.0974 62.3796C29.1616 65.3037 28.5517 68.2034 27.315 70.8538C26.2087 73.1912 24.4329 75.1472 22.2131 76.4736C19.9047 77.8179 17.2715 78.5023 14.6007 78.4521C11.9449 78.4985 9.32618 77.8237 7.02359 76.4994C4.79022 75.1853 2.99329 73.2426 1.85709 70.9137C0.596203 68.3128 -0.0383399 65.4529 0.00421546 62.5628V60.9412C-0.0577661 58.0026 0.564499 55.0898 1.82187 52.433C2.9404 50.0884 4.72785 48.1273 6.959 46.7968C9.26203 45.4617 11.8863 44.7816 14.5479 44.83C17.2095 44.7816 19.8337 45.4617 22.1367 46.7968C24.3679 48.1273 26.1553 50.0884 27.2739 52.433C28.5296 55.0824 29.1519 57.9876 29.0915 60.9189L29.0974 62.3796ZM21.9665 60.8966C21.9665 57.4648 21.3254 54.8573 20.0431 53.0741C19.4263 52.2032 18.6002 51.5016 17.6408 51.0341C16.6814 50.5666 15.6197 50.3483 14.5537 50.3993C13.4947 50.3489 12.44 50.5642 11.4854 51.0254C10.5307 51.4866 9.70658 52.1791 9.08783 53.04C7.8056 54.8006 7.15665 57.3818 7.141 60.7839V62.3796C6.9795 65.1072 7.65021 67.8196 9.06434 70.1575C9.6735 71.0536 10.5024 71.7784 11.4717 72.2625C12.4411 72.7467 13.5184 72.974 14.6007 72.9228C15.6589 72.9739 16.7127 72.7565 17.6643 72.2909C18.6159 71.8253 19.4342 71.1266 20.0431 70.2597C21.3097 68.4843 21.9508 65.8956 21.9665 62.4935V60.8966ZM40.1232 53.6811L40.3345 56.4006C41.2304 55.3534 42.3528 54.5238 43.6167 53.9745C44.8807 53.4253 46.253 53.1708 47.6298 53.2302C50.898 53.2302 53.1423 54.4667 54.3627 56.9396C55.2206 55.7317 56.3685 54.7589 57.7008 54.1107C59.033 53.4625 60.5069 53.1598 61.9868 53.2302C63.1174 53.1406 64.2539 53.3005 65.3159 53.6986C66.3779 54.0967 67.3395 54.7233 68.1326 55.534C69.4774 57.0699 70.1498 59.3815 70.1498 62.4689V78.0024H63.3465V62.4924C63.4378 61.4158 63.1381 60.3423 62.5023 59.4688C62.1006 59.1093 61.6278 58.8384 61.1146 58.6737C60.6013 58.509 60.0591 58.4543 59.5233 58.513C58.6122 58.459 57.7081 58.7014 56.9462 59.2038C56.1843 59.7063 55.6054 60.4418 55.2962 61.3005L55.3197 78.0012H48.5398V62.5147C48.6366 61.4249 48.3276 60.3377 47.6721 59.4617C47.2707 59.1101 46.801 58.8451 46.2924 58.6835C45.7839 58.5219 45.2474 58.467 44.7166 58.5224C43.8745 58.4671 43.0341 58.6535 42.2943 59.0598C41.5546 59.4661 40.9463 60.0753 40.5412 60.8156V78.0024H33.7613V53.6811H40.1232ZM81.5971 53.6811L81.8085 56.491C82.6922 55.4236 83.8101 54.5743 85.0754 54.009C86.3406 53.4437 87.7191 53.1776 89.1038 53.2314C90.2101 53.1437 91.3222 53.3017 92.3603 53.6941C93.3984 54.0865 94.337 54.7036 95.1087 55.5012C96.4222 57.0143 97.0946 59.277 97.126 62.2892V78.0024H90.3461V62.4477C90.3949 61.9103 90.337 61.3685 90.1758 60.8534C90.0146 60.3384 89.7532 59.8602 89.4067 59.4465C88.5282 58.7407 87.4086 58.4061 86.2869 58.5142C85.4259 58.4733 84.5702 58.6697 83.8131 59.082C83.0561 59.4943 82.4268 60.1065 81.994 60.852V78.0024H75.2142V53.6811H81.5971ZM109.419 78.0024H102.615V53.6811H109.419V78.0024ZM102.217 47.3874C102.204 46.9368 102.289 46.4886 102.465 46.0736C102.641 45.6586 102.905 45.2865 103.238 44.9827C104.008 44.3228 105.004 43.9863 106.017 44.0433C107.026 43.9903 108.016 44.3266 108.785 44.9827C109.121 45.2847 109.387 45.6562 109.565 46.0715C109.744 46.4867 109.829 46.9357 109.817 47.3874C109.831 47.8437 109.744 48.2974 109.564 48.7167C109.384 49.136 109.114 49.5107 108.773 49.8145C108.007 50.4669 107.022 50.8028 106.017 50.7539C105.012 50.8028 104.027 50.4669 103.261 49.8145C102.92 49.5107 102.65 49.136 102.47 48.7167C102.29 48.2974 102.203 47.8437 102.217 47.3874Z" fill="#04D361"/>
<path d="M76.6631 24.6161C74.9591 24.2188 73.366 23.444 72.0015 22.3487C71.5333 21.9334 71.1606 21.4217 70.9089 20.8487C70.6571 20.2757 70.5324 19.655 70.5432 19.0293C70.5321 18.3171 70.6874 17.6121 70.9966 16.9704C71.3058 16.3287 71.7605 15.768 72.3244 15.3329C73.6473 14.3137 75.2884 13.7958 76.9566 13.871C78.1549 13.8495 79.3417 14.1076 80.4229 14.6248C81.3891 15.0834 82.2069 15.8044 82.783 16.7055C83.3351 17.5708 83.6254 18.5771 83.6191 19.6035H81.118C81.1448 19.1011 81.0612 18.599 80.8731 18.1325C80.6851 17.6659 80.3971 17.2462 80.0295 16.9028C79.1652 16.2016 78.0685 15.8516 76.9578 15.9223C75.9369 15.8614 74.9255 16.1478 74.0881 16.7349C73.7495 17.0017 73.4794 17.3454 73.3004 17.7375C73.1213 18.1296 73.0383 18.5587 73.0583 18.9893C73.0579 19.3689 73.1461 19.7432 73.3159 20.0827C73.4857 20.4221 73.7324 20.7172 74.0364 20.9444C75.0433 21.6401 76.174 22.1367 77.3676 22.4074C78.652 22.734 79.8889 23.2249 81.0476 23.8682C81.847 24.3187 82.5233 24.9591 83.0167 25.7328C83.4576 26.4937 83.6795 27.3617 83.6578 28.2409C83.6786 28.9535 83.5268 29.6606 83.2154 30.3019C82.904 30.9433 82.4423 31.4999 81.8695 31.9244C80.476 32.9088 78.7921 33.3963 77.0882 33.3087C75.8392 33.3171 74.6027 33.061 73.4599 32.5572C72.4225 32.1284 71.5234 31.4219 70.8614 30.5153C70.2535 29.653 69.9337 28.6206 69.9478 27.5657H72.4489C72.4283 28.0853 72.5323 28.6022 72.7521 29.0734C72.9718 29.5446 73.3011 29.9564 73.7123 30.2746C74.6923 30.979 75.883 31.3285 77.0882 31.2656C78.1557 31.3361 79.2167 31.0539 80.1082 30.4625C80.4478 30.2087 80.7207 29.8764 80.9035 29.4939C81.0864 29.1114 81.1737 28.6903 81.1579 28.2667C81.1793 27.8568 81.1021 27.4477 80.933 27.0736C80.7638 26.6996 80.5076 26.3715 80.1857 26.1168C79.1064 25.4179 77.9148 24.9102 76.6631 24.6161ZM92.2905 33.3052C91.4285 33.3368 90.5695 33.1858 89.77 32.862C88.9704 32.5382 88.2484 32.049 87.6513 31.4265C86.4142 30.055 85.7711 28.2491 85.863 26.4044V25.9629C85.8403 24.6734 86.1131 23.3957 86.6602 22.2278C87.1503 21.1795 87.9228 20.2886 88.8912 19.6551C89.8114 19.0461 90.8912 18.723 91.9946 18.7263C92.794 18.683 93.5926 18.8233 94.3294 19.1363C95.0662 19.4493 95.7215 19.9268 96.2453 20.5322C97.3451 22.0212 97.8821 23.8516 97.7611 25.6987V26.6992H88.2583C88.2358 27.9295 88.6671 29.125 89.4701 30.0574C89.8375 30.4747 90.2919 30.8063 90.8013 31.0291C91.3107 31.2518 91.8627 31.3602 92.4185 31.3466C93.1694 31.3704 93.9126 31.1906 94.5697 30.8265C95.1673 30.4707 95.6908 30.0031 96.1114 29.4491L97.5756 30.5928C97.0147 31.4741 96.2293 32.1902 95.3001 32.6675C94.3708 33.1449 93.3313 33.3662 92.2882 33.3087L92.2905 33.3052ZM91.9911 20.7049C91.533 20.6959 91.0782 20.7856 90.6578 20.968C90.2374 21.1503 89.8612 21.421 89.5547 21.7616C88.8433 22.5963 88.4167 23.6362 88.337 24.73H95.3611V24.548C95.361 23.5178 95.0139 22.5177 94.3759 21.7088C94.0782 21.3745 93.7096 21.1109 93.297 20.9372C92.8844 20.7635 92.4383 20.6841 91.9911 20.7049ZM102.786 18.9893L102.848 20.5499C103.357 19.9499 103.996 19.4742 104.717 19.1589C105.438 18.8437 106.222 18.6974 107.008 18.731C107.827 18.6511 108.65 18.8252 109.367 19.2296C110.083 19.634 110.657 20.2491 111.012 20.9914C111.483 20.3115 112.107 19.751 112.833 19.3545C113.648 18.9223 114.561 18.7076 115.483 18.731C118.559 18.731 120.125 20.3639 120.18 23.6298V33.0481H117.778V23.7719C117.84 22.9615 117.595 22.1575 117.091 21.5198C116.779 21.2427 116.413 21.0334 116.016 20.9048C115.619 20.7763 115.2 20.7314 114.785 20.773C113.971 20.745 113.177 21.0314 112.569 21.5726C111.968 22.1336 111.602 22.9021 111.545 23.7226V33.0481H109.134V23.8365C109.198 23.4251 109.165 23.0045 109.038 22.6081C108.911 22.2117 108.694 21.8504 108.402 21.5528C108.111 21.2553 107.755 21.0296 107.361 20.8938C106.968 20.7581 106.548 20.7159 106.136 20.7706C105.453 20.718 104.772 20.8851 104.191 21.2475C103.611 21.6098 103.161 22.1483 102.909 22.7844V33.0481H100.517V18.9905L102.786 18.9893ZM132.447 33.0481C132.261 32.5743 132.147 32.0751 132.11 31.5674C131.604 32.1218 130.987 32.5633 130.299 32.8634C129.612 33.1634 128.868 33.3152 128.118 33.3087C126.875 33.3597 125.659 32.9405 124.713 32.1345C124.285 31.7665 123.944 31.308 123.715 30.7922C123.487 30.2764 123.375 29.7162 123.389 29.1521C123.362 28.4908 123.499 27.833 123.79 27.2384C124.081 26.6438 124.515 26.1312 125.054 25.7469C126.447 24.8559 128.086 24.4285 129.737 24.5257H132.069V23.4208C132.087 23.0525 132.03 22.6844 131.901 22.3391C131.772 21.9938 131.573 21.6786 131.317 21.4129C131.016 21.1472 130.665 20.9442 130.285 20.816C129.904 20.6878 129.502 20.6368 129.102 20.6661C128.333 20.6395 127.576 20.8678 126.951 21.3154C126.688 21.4866 126.472 21.7195 126.321 21.9936C126.17 22.2677 126.088 22.5747 126.083 22.8877H123.675C123.689 22.1455 123.952 21.4296 124.42 20.854C124.952 20.1733 125.647 19.6391 126.442 19.3017C127.326 18.9137 128.282 18.7188 129.247 18.7298C130.62 18.6489 131.974 19.0822 133.045 19.9451C133.507 20.3686 133.874 20.8863 134.12 21.4633C134.365 22.0404 134.484 22.6634 134.469 23.2904V29.7615C134.428 30.8102 134.595 31.8566 134.961 32.8402V33.0481H132.447ZM128.469 31.2163C129.221 31.2154 129.96 31.0127 130.607 30.6292C131.239 30.2835 131.75 29.7529 132.071 29.1086V26.2271H130.193C127.256 26.2271 125.787 27.0882 125.787 28.8104C125.771 29.1417 125.83 29.4724 125.96 29.7775C126.09 30.0826 126.288 30.3541 126.538 30.5717C127.082 31.014 127.768 31.2432 128.469 31.2163ZM140.495 18.9905L140.573 20.7518C141.061 20.1063 141.696 19.5863 142.426 19.2347C143.155 18.8831 143.957 18.7101 144.767 18.7298C147.73 18.7298 149.224 20.4058 149.25 23.7578V33.0481H146.857V23.7507C146.915 22.9413 146.668 22.1393 146.164 21.5033C145.882 21.242 145.548 21.0423 145.184 20.9169C144.82 20.7916 144.434 20.7434 144.051 20.7753C143.319 20.761 142.602 20.9793 142.003 21.3988C141.412 21.8178 140.939 22.3814 140.629 23.0356V33.0481H138.226V18.9905H140.495ZM161.526 33.0481C161.34 32.5743 161.226 32.0751 161.189 31.5674C160.683 32.1218 160.066 32.5633 159.379 32.8634C158.691 33.1634 157.947 33.3152 157.197 33.3087C155.955 33.3597 154.739 32.9405 153.792 32.1345C153.364 31.7665 153.023 31.308 152.795 30.7922C152.566 30.2764 152.454 29.7162 152.468 29.1521C152.441 28.4908 152.579 27.833 152.869 27.2384C153.16 26.6438 153.594 26.1312 154.133 25.7469C155.528 24.8575 157.168 24.4321 158.818 24.5316H161.15V23.4267C161.169 23.0584 161.112 22.6903 160.982 22.3449C160.853 21.9996 160.655 21.6844 160.399 21.4188C160.098 21.153 159.747 20.9501 159.366 20.8219C158.986 20.6936 158.584 20.6427 158.183 20.672C157.414 20.6453 156.658 20.8735 156.032 21.3213C155.77 21.4925 155.554 21.7253 155.403 21.9994C155.251 22.2735 155.169 22.5805 155.164 22.8936H152.751C152.766 22.1514 153.028 21.4354 153.497 20.8599C154.028 20.1792 154.724 19.645 155.519 19.3076C156.403 18.9196 157.359 18.7247 158.324 18.7357C159.697 18.6549 161.051 19.0882 162.121 19.951C162.584 20.3743 162.951 20.892 163.197 21.4691C163.443 22.0461 163.562 22.6692 163.547 23.2963V29.7615C163.506 30.8102 163.673 31.8566 164.039 32.8402V33.0481H161.526ZM157.548 31.2163C158.3 31.2154 159.039 31.0127 159.686 30.6292C160.318 30.2835 160.829 29.7529 161.15 29.1086V26.2271H159.272C156.335 26.2271 154.866 27.0882 154.866 28.8104C154.85 29.1417 154.909 29.4724 155.039 29.7775C155.169 30.0826 155.367 30.3541 155.618 30.5717C156.161 31.014 156.848 31.2432 157.548 31.2163Z" fill="#222222"/>
<path d="M311.594 12.9672L320.797 17.9872V31.0392L311.594 26.0192V12.9672Z" fill="url(#paint0_linear)"/>
<path d="M330 12.9672L320.797 17.9872V31.0392L330 26.0192V12.9672Z" fill="#222222"/>
<path d="M320.797 8.03082L311.594 13.0508L320.797 18.2382L330 12.9689L320.797 8.03082Z" fill="url(#paint1_linear)"/>
<path d="M299.524 0L312.965 7.33149L292.315 19.6728L278.874 12.3413L299.524 0Z" fill="url(#paint2_linear)"/>
<path d="M286.206 26.2712L299.646 34.0915V71.482L286.206 63.6618V26.2712Z" fill="url(#paint3_linear)"/>
<path fill-rule="evenodd" clip-rule="evenodd" d="M292.315 19.4284L313.087 7.20927V26.2711L313.081 26.2752L313.087 26.2712V63.6618L299.646 71.482V34.1776L292.315 38.4903V19.4284Z" fill="#222222"/>
<path d="M278.874 12.0969L292.315 19.4284V38.4903L278.874 31.1588V12.0969Z" fill="url(#paint4_linear)"/>
<path d="M272.887 16.1293L286.328 23.4608L265.677 35.8021L252.236 28.4706L272.887 16.1293Z" fill="url(#paint5_linear)"/>
<path d="M259.567 42.4004L273.008 50.2207V87.6113L259.567 79.7911V42.4004Z" fill="url(#paint6_linear)"/>
<path fill-rule="evenodd" clip-rule="evenodd" d="M265.677 35.5577L286.45 23.3386V42.4004V79.7911L273.008 87.6113V50.3069L265.677 54.6196V35.5577Z" fill="#222222"/>
<path d="M252.236 28.2262L265.677 35.5577V54.6196L252.236 47.2881V28.2262Z" fill="url(#paint7_linear)"/>
<defs>
<linearGradient id="paint0_linear" x1="316.195" y1="12.9672" x2="316.195" y2="31.0392" gradientUnits="userSpaceOnUse">
<stop stop-color="#04D361"/>
<stop offset="1" stop-color="#013B1B"/>
</linearGradient>
<linearGradient id="paint1_linear" x1="320.797" y1="8.03082" x2="320.797" y2="18.2382" gradientUnits="userSpaceOnUse">
<stop stop-color="#04D361"/>
<stop offset="1" stop-color="#013B1B"/>
</linearGradient>
<linearGradient id="paint2_linear" x1="295.92" y1="-1.98738e-09" x2="295.965" y2="39.2411" gradientUnits="userSpaceOnUse">
<stop stop-color="#04D361"/>
<stop offset="1" stop-color="#013B1B"/>
</linearGradient>
<linearGradient id="paint3_linear" x1="292.926" y1="26.2712" x2="292.926" y2="71.482" gradientUnits="userSpaceOnUse">
<stop stop-color="#04D361"/>
<stop offset="1" stop-color="#013B1B"/>
</linearGradient>
<linearGradient id="paint4_linear" x1="285.595" y1="12.0969" x2="285.595" y2="38.4903" gradientUnits="userSpaceOnUse">
<stop stop-color="#04D361"/>
<stop offset="1" stop-color="#013B1B"/>
</linearGradient>
<linearGradient id="paint5_linear" x1="269.282" y1="16.1293" x2="269.328" y2="55.3703" gradientUnits="userSpaceOnUse">
<stop stop-color="#04D361"/>
<stop offset="1" stop-color="#013B1B"/>
</linearGradient>
<linearGradient id="paint6_linear" x1="266.288" y1="42.4004" x2="266.288" y2="87.6113" gradientUnits="userSpaceOnUse">
<stop stop-color="#04D361"/>
<stop offset="1" stop-color="#013B1B"/>
</linearGradient>
<linearGradient id="paint7_linear" x1="258.957" y1="28.2262" x2="258.957" y2="54.6196" gradientUnits="userSpaceOnUse">
<stop stop-color="#04D361"/>
<stop offset="1" stop-color="#013B1B"/>
</linearGradient>
</defs>
</svg>
